HIERARCHY
ROOT Hips
{
	OFFSET 0.000000 83.214638 0.000000
	CHANNELS 6 Xposition Yposition Zposition Xrotation Yrotation Zrotation
	JOINT Pelvis
	{
		OFFSET 0.000000 0.000000 0.000000
		CHANNELS 3 Xrotation Yrotation Zrotation
		JOINT LeftUpLeg
		{
			OFFSET 8.479700 -4.795502 -0.379100
			CHANNELS 3 Xrotation Yrotation Zrotation
			JOINT LeftLeg
			{
				OFFSET 0.024144 -32.555107 0.112900
				CHANNELS 3 Xrotation Yrotation Zrotation
				JOINT LeftFoot
				{
					OFFSET -0.024144 -32.638630 -3.012600
					CHANNELS 3 Xrotation Yrotation Zrotation
					JOINT LeftToeBase
					{
						OFFSET 0.970200 -13.225400 11.864200
						CHANNELS 3 Xrotation Yrotation Zrotation
						End Site
						{
							OFFSET 0.000000 12.319262 0.000000
						}
					}
					JOINT LFootTongue
					{
						OFFSET 1.142400 -1.059800 6.665200
						CHANNELS 3 Xrotation Yrotation Zrotation
						End Site
						{
							OFFSET 0.000000 12.319262 0.000000
						}
					}
				}
				JOINT LeftPantLeg
				{
					OFFSET 0.918482 -16.533964 -2.284700
					CHANNELS 3 Xrotation Yrotation Zrotation
					End Site
					{
						OFFSET 0.350399 24.744368 0.000000
					}
				}
			}
		}
		JOINT RightUpLeg
		{
			OFFSET -8.479700 -4.795502 -0.379100
			CHANNELS 3 Xrotation Yrotation Zrotation
			JOINT RightLeg
			{
				OFFSET -0.023144 -32.555092 0.112900
				CHANNELS 3 Xrotation Yrotation Zrotation
				JOINT RightFoot
				{
					OFFSET 0.023144 -32.638641 -3.012700
					CHANNELS 3 Xrotation Yrotation Zrotation
					JOINT RightToeBase
					{
						OFFSET -0.970200 -13.225400 11.864200
						CHANNELS 3 Xrotation Yrotation Zrotation
						End Site
						{
							OFFSET 0.000000 12.319244 0.000000
						}
					}
					JOINT RFootTongue
					{
						OFFSET -1.142200 -1.059800 6.665200
						CHANNELS 3 Xrotation Yrotation Zrotation
						End Site
						{
							OFFSET 0.000000 12.319243 0.000000
						}
					}
				}
				JOINT RightPantLeg
				{
					OFFSET -0.919482 -16.533978 -2.284800
					CHANNELS 3 Xrotation Yrotation Zrotation
					End Site
					{
						OFFSET -0.350400 24.744419 0.000000
					}
				}
			}
		}
	}
	JOINT Spine
	{
		OFFSET 0.000000 7.722000 1.166200
		CHANNELS 3 Xrotation Yrotation Zrotation
		JOINT Spine1
		{
			OFFSET 0.000000 12.024101 0.248800
			CHANNELS 3 Xrotation Yrotation Zrotation
			JOINT Spine2
			{
				OFFSET 0.000000 11.502998 -0.491200
				CHANNELS 3 Xrotation Yrotation Zrotation
				JOINT Neck
				{
					OFFSET 0.000000 18.430702 -3.123100
					CHANNELS 3 Xrotation Yrotation Zrotation
					JOINT Head
					{
						OFFSET 0.000000 9.051102 1.034000
						CHANNELS 3 Xrotation Yrotation Zrotation
						JOINT HairB
						{
							OFFSET 0.208400 24.786102 24.822300
							CHANNELS 3 Xrotation Yrotation Zrotation
							End Site
							{
								OFFSET 0.000000 32.263779 0.000000
							}
						}
						JOINT HairA
						{
							OFFSET -7.081100 24.428299 23.196600
							CHANNELS 3 Xrotation Yrotation Zrotation
							End Site
							{
								OFFSET 0.000000 32.263779 0.000000
							}
						}
						JOINT Hat
						{
							OFFSET 16.728800 15.048294 -15.439601
							CHANNELS 3 Xrotation Yrotation Zrotation
							End Site
							{
								OFFSET 0.000000 32.263779 0.000000
							}
						}
					}
				}
				JOINT LeftShoulder
				{
					OFFSET 6.197800 13.665199 -4.064700
					CHANNELS 3 Xrotation Yrotation Zrotation
					JOINT LeftArm
					{
						OFFSET 7.778100 -0.187103 -1.709300
						CHANNELS 3 Xrotation Yrotation Zrotation
						JOINT LeftForeArm
						{
							OFFSET 22.049376 0.000000 0.000000
							CHANNELS 3 Xrotation Yrotation Zrotation
							JOINT LeftHand
							{
								OFFSET 23.009392 0.000000 0.000000
								CHANNELS 3 Xrotation Yrotation Zrotation
								JOINT LeftHandThumb1
								{
									OFFSET 3.507191 -2.063065 3.133727
									CHANNELS 3 Xrotation Yrotation Zrotation
									JOINT LeftHandThumb2
									{
										OFFSET 3.101337 -1.790558 1.790558
										CHANNELS 3 Xrotation Yrotation Zrotation
										JOINT LeftHandThumb3
										{
											OFFSET 3.058640 -1.765907 1.765906
											CHANNELS 3 Xrotation Yrotation Zrotation
											End Site
											{
												OFFSET -0.415260 3.926476 -0.049563
											}
										}
									}
								}
								JOINT LeftHandIndex1
								{
									OFFSET 11.334419 -0.901459 3.706815
									CHANNELS 3 Xrotation Yrotation Zrotation
									JOINT LeftHandIndex2
									{
										OFFSET 3.283112 0.000000 0.000000
										CHANNELS 3 Xrotation Yrotation Zrotation
										JOINT LeftHandIndex3
										{
											OFFSET 3.323853 0.000000 0.000000
											CHANNELS 3 Xrotation Yrotation Zrotation
											End Site
											{
												OFFSET -1.135597 3.097809 0.402452
											}
										}
									}
								}
								JOINT LeftHandMiddle1
								{
									OFFSET 11.335861 0.000000 0.000000
									CHANNELS 3 Xrotation Yrotation Zrotation
									JOINT LeftHandMiddle2
									{
										OFFSET 3.410492 0.000000 0.000000
										CHANNELS 3 Xrotation Yrotation Zrotation
										JOINT LeftHandMiddle3
										{
											OFFSET 3.312172 0.000000 0.000000
											CHANNELS 3 Xrotation Yrotation Zrotation
											End Site
											{
												OFFSET -1.150200 3.080154 0.400270
											}
										}
									}
								}
								JOINT LeftHandRing1
								{
									OFFSET 11.514786 -0.013176 -3.003090
									CHANNELS 3 Xrotation Yrotation Zrotation
									JOINT LeftHandRing2
									{
										OFFSET 3.053307 0.000000 0.000000
										CHANNELS 3 Xrotation Yrotation Zrotation
										JOINT LeftHandRing3
										{
											OFFSET 3.295807 0.000000 0.000000
											CHANNELS 3 Xrotation Yrotation Zrotation
											End Site
											{
												OFFSET -1.281006 3.013344 0.375733
											}
										}
									}
								}
								JOINT LeftHandPinky1
								{
									OFFSET 10.518692 -0.960396 -5.730441
									CHANNELS 3 Xrotation Yrotation Zrotation
									JOINT LeftHandPinky2
									{
										OFFSET 2.861649 0.000000 0.000000
										CHANNELS 3 Xrotation Yrotation Zrotation
										JOINT LeftHandPinky3
										{
											OFFSET 2.863380 0.000000 0.000000
											CHANNELS 3 Xrotation Yrotation Zrotation
											End Site
											{
												OFFSET -0.843597 2.711159 0.369971
											}
										}
									}
								}
							}
							JOINT LSleeve
							{
								OFFSET 6.676277 -0.344902 -1.011730
								CHANNELS 3 Xrotation Yrotation Zrotation
								End Site
								{
									OFFSET 0.000000 14.885353 0.000000
								}
							}
						}
					}
				}
				JOINT RightShoulder
				{
					OFFSET -6.197800 13.665199 -4.064700
					CHANNELS 3 Xrotation Yrotation Zrotation
					JOINT RightArm
					{
						OFFSET -7.778100 -0.187103 -1.709300
						CHANNELS 3 Xrotation Yrotation Zrotation
						JOINT RightForeArm
						{
							OFFSET -22.049376 0.000000 0.000000
							CHANNELS 3 Xrotation Yrotation Zrotation
							JOINT RightHand
							{
								OFFSET -23.009392 0.000000 0.000000
								CHANNELS 3 Xrotation Yrotation Zrotation
								JOINT RightHandThumb1
								{
									OFFSET -3.507191 -2.063065 3.133727
									CHANNELS 3 Xrotation Yrotation Zrotation
									JOINT RightHandThumb2
									{
										OFFSET -3.101337 -1.790558 1.790558
										CHANNELS 3 Xrotation Yrotation Zrotation
										JOINT RightHandThumb3
										{
											OFFSET -3.058640 -1.765907 1.765906
											CHANNELS 3 Xrotation Yrotation Zrotation
											End Site
											{
												OFFSET 0.415260 3.926476 -0.049563
											}
										}
									}
								}
								JOINT RightHandIndex1
								{
									OFFSET -11.334419 -0.901459 3.706815
									CHANNELS 3 Xrotation Yrotation Zrotation
									JOINT RightHandIndex2
									{
										OFFSET -3.283112 0.000000 0.000000
										CHANNELS 3 Xrotation Yrotation Zrotation
										JOINT RightHandIndex3
										{
											OFFSET -3.323853 0.000000 0.000000
											CHANNELS 3 Xrotation Yrotation Zrotation
											End Site
											{
												OFFSET 1.135597 3.097809 0.402452
											}
										}
									}
								}
								JOINT RightHandMiddle1
								{
									OFFSET -11.335861 0.000000 0.000000
									CHANNELS 3 Xrotation Yrotation Zrotation
									JOINT RightHandMiddle2
									{
										OFFSET -3.410492 0.000000 0.000000
										CHANNELS 3 Xrotation Yrotation Zrotation
										JOINT RightHandMiddle3
										{
											OFFSET -3.312172 0.000000 0.000000
											CHANNELS 3 Xrotation Yrotation Zrotation
											End Site
											{
												OFFSET 1.150200 3.080154 0.400270
											}
										}
									}
								}
								JOINT RightHandRing1
								{
									OFFSET -11.514786 -0.013176 -3.003090
									CHANNELS 3 Xrotation Yrotation Zrotation
									JOINT RightHandRing2
									{
										OFFSET -3.053307 0.000000 0.000000
										CHANNELS 3 Xrotation Yrotation Zrotation
										JOINT RightHandRing3
										{
											OFFSET -3.295807 0.000000 0.000000
											CHANNELS 3 Xrotation Yrotation Zrotation
											End Site
											{
												OFFSET 1.281006 3.013344 0.375733
											}
										}
									}
								}
								JOINT RightHandPinky1
								{
									OFFSET -10.518692 -0.960396 -5.730441
									CHANNELS 3 Xrotation Yrotation Zrotation
									JOINT RightHandPinky2
									{
										OFFSET -2.861649 0.000000 0.000000
										CHANNELS 3 Xrotation Yrotation Zrotation
										JOINT RightHandPinky3
										{
											OFFSET -2.863380 0.000000 0.000000
											CHANNELS 3 Xrotation Yrotation Zrotation
											End Site
											{
												OFFSET 0.843597 2.711159 0.369971
											}
										}
									}
								}
							}
							JOINT RSleeve
							{
								OFFSET -6.676277 -0.344902 -1.011730
								CHANNELS 3 Xrotation Yrotation Zrotation
								End Site
								{
									OFFSET 0.000000 14.885353 0.000000
								}
							}
						}
					}
				}
				JOINT Backpack
				{
					OFFSET 0.000000 -2.471497 36.677502
					CHANNELS 3 Xrotation Yrotation Zrotation
					End Site
					{
						OFFSET 0.000000 20.427315 0.000000
					}
				}
				JOINT Hood
				{
					OFFSET 0.000000 18.754097 -10.431000
					CHANNELS 3 Xrotation Yrotation Zrotation
					JOINT Hood1
					{
						OFFSET 0.000000 -5.011002 -7.685901
						CHANNELS 3 Xrotation Yrotation Zrotation
						End Site
						{
							OFFSET 0.000000 9.175140 0.000000
						}
					}
				}
				JOINT LHoodieString
				{
					OFFSET 5.250500 16.397697 3.089900
					CHANNELS 3 Xrotation Yrotation Zrotation
					JOINT LHoodieString1
					{
						OFFSET 0.257700 -6.364304 3.694600
						CHANNELS 3 Xrotation Yrotation Zrotation
						JOINT LHoodieString2
						{
							OFFSET 0.000000 -9.643799 2.679100
							CHANNELS 3 Xrotation Yrotation Zrotation
							End Site
							{
								OFFSET 0.000000 10.009018 0.000000
							}
						}
					}
				}
				JOINT RHoodieString
				{
					OFFSET -5.250500 16.397697 3.089900
					CHANNELS 3 Xrotation Yrotation Zrotation
					JOINT RHoodieString1
					{
						OFFSET -0.257700 -6.364304 3.694600
						CHANNELS 3 Xrotation Yrotation Zrotation
						JOINT RHoodieString2
						{
							OFFSET 0.000000 -9.643799 2.679100
							CHANNELS 3 Xrotation Yrotation Zrotation
							End Site
							{
								OFFSET 0.000000 10.009018 0.000000
							}
						}
					}
				}
			}
			JOINT LBackpack_Strap
			{
				OFFSET 15.223200 -7.719803 -6.610900
				CHANNELS 3 Xrotation Yrotation Zrotation
				End Site
				{
					OFFSET 0.000000 16.040596 0.000000
				}
			}
			JOINT RBackpack_Strap
			{
				OFFSET -15.223000 -7.719803 -6.610900
				CHANNELS 3 Xrotation Yrotation Zrotation
				End Site
				{
					OFFSET 0.000000 16.040596 0.000000
				}
			}
		}
	}
	JOINT BoyFacialAnim_Joint
	{
		OFFSET 1.000000 -82.208099 -1.550900
		CHANNELS 3 Xrotation Yrotation Zrotation
		End Site
		{
			OFFSET 0.000000 30.012791 0.000000
		}
	}
}
MOTION
Frames: 4
Frame Time: 0.033333
0.153018 75.631317 1.001690 3.439368 1.455636 -4.674969 0.000000 0.000000 -0.000000 -45.366963 5.518383 -0.705773 99.193382 13.511169 3.912598 -8.427954 -0.897571 6.602479 0.000002 -0.000001 0.000000 0.000002 -0.000001 0.000000 0.000002 -0.000000 -0.000000 -21.309929 -5.984309 4.636460 50.383539 0.126869 -1.583350 -24.692104 0.138454 -0.424436 -0.000001 0.000000 -0.000000 -0.000001 0.000000 -0.000000 -0.000004 0.000000 0.000000 4.908425 1.320734 2.168765 9.857124 2.800250 1.722123 9.857128 2.800253 1.722121 -7.496565 -3.144979 -0.434787 -14.101447 -7.360284 -5.253896 -0.000000 -0.000000 -0.000000 -0.000000 -0.000000 -0.000000 -0.000000 -0.000000 -0.000000 1.084074 -1.226536 -9.108715 21.951241 16.129898 -69.744639 5.201878 -103.989856 -6.123388 11.822926 -20.243311 2.841637 -3.691979 -7.086390 -6.633064 5.370476 13.667860 2.734586 -0.000003 0.000001 -0.000001 -4.474880 -5.484576 -78.092039 -6.129828 -4.169877 -86.100265 -0.000001 0.000000 -0.000002 -4.796157 -3.744492 -81.577095 -5.132305 -5.371461 -79.877683 0.000000 0.000001 -0.000001 -3.648023 4.572511 -85.639910 -3.076713 -4.303876 -82.603024 -0.000003 0.000000 -0.000000 -3.272593 10.937581 -91.302711 -1.692360 -6.213492 -92.125872 -0.000001 0.000001 -0.000000 -0.000001 -0.000004 0.000001 0.776470 6.054089 9.529805 5.506732 -10.523605 55.529305 -70.896653 86.710426 75.613712 -0.541027 5.793799 2.436062 1.190103 2.334165 7.237146 4.247088 -11.103176 -2.569501 -0.000000 0.000002 0.000003 3.425659 2.972023 72.846993 -5.581828 2.947660 92.129649 0.000000 0.000001 0.000005 -2.180771 2.047267 78.118820 -4.735093 4.314421 85.933192 0.000001 -0.000006 0.000002 -3.528570 -3.131061 85.505615 -4.842955 5.681410 88.623549 -0.000000 0.000001 0.000000 -4.108845 -7.839736 98.143343 -5.436661 9.326577 98.221570 -0.000002 -0.000005 -0.000002 0.000001 -0.000004 0.000004 0.000003 0.000000 -0.000000 0.000003 0.000000 -0.000000 0.000003 0.000000 -0.000000 0.000003 0.000000 -0.000000 0.000003 0.000000 0.000000 0.000001 0.000000 0.000000 0.000003 0.000000 -0.000000 0.000003 0.000000 0.000000 0.000001 0.000000 0.000000 0.000002 0.000001 -0.000000 0.000002 0.000001 -0.000000 0.000000 0.000000 -0.000000 
-0.337578 77.154106 12.592100 2.985418 1.196085 -3.870895 -0.000000 -0.000000 0.000000 -47.461741 4.111894 -1.285613 92.323414 15.181576 3.473118 -9.046382 -2.126630 6.268598 -0.000000 -0.000000 -0.000001 -0.000000 -0.000000 -0.000001 -0.000001 0.000000 0.000000 -1.729869 -2.200333 4.096036 32.075029 -3.383424 -0.400758 -27.355601 2.228327 -2.230514 0.000000 -0.000000 0.000001 0.000000 -0.000000 0.000001 -0.000004 0.000000 -0.000000 5.160259 1.220673 2.056562 10.355423 2.561837 1.645024 10.355422 2.561835 1.645024 -6.110547 -2.719966 -1.476239 -15.023754 -7.258339 -4.352136 0.000000 -0.000000 -0.000000 0.000000 -0.000000 -0.000000 0.000000 -0.000000 -0.000000 1.565504 -2.929288 -10.283155 19.072670 16.581481 -65.477902 1.842134 -101.124899 -5.804106 9.511496 -20.540377 4.188447 -3.531038 -6.515016 -6.124899 6.565426 12.778697 2.513599 0.000001 -0.000001 -0.000001 -4.177598 -5.407854 -74.992513 -5.780497 -4.119792 -83.190229 -0.000003 0.000001 -0.000007 -4.498215 -3.691622 -78.486257 -4.825149 -5.289679 -76.960283 0.000002 0.000002 0.000002 -3.438310 4.584013 -82.667911 -2.897339 -4.283863 -79.644077 -0.000002 0.000001 -0.000004 -3.062748 10.890656 -87.940147 -1.625702 -6.234641 -89.213158 0.000000 -0.000004 -0.000001 -0.000000 0.000000 -0.000001 1.489348 6.628604 6.630104 3.857535 -12.061664 51.714685 -30.050377 83.835101 33.144097 -2.110915 5.685942 2.409957 0.943394 1.713504 7.265097 5.641685 -9.561829 -3.308736 0.000001 -0.000001 0.000001 3.213966 2.586143 70.021262 -5.268586 2.932729 88.951118 -0.000004 -0.000001 -0.000002 -2.102233 1.896509 75.193327 -4.459200 4.268171 82.746956 0.000004 0.000002 0.000000 -3.244676 -3.150243 82.544906 -4.564834 5.678277 85.385233 0.000005 0.000002 0.000001 -3.680454 -7.743351 94.502470 -5.189553 9.376183 95.013218 0.000002 -0.000000 0.000004 -0.000003 0.000002 -0.000000 0.000001 -0.000000 -0.000000 0.000001 -0.000000 -0.000000 0.000001 -0.000000 -0.000000 0.000001 -0.000000 -0.000000 0.000001 -0.000000 -0.000000 0.000001 -0.000000 -0.000000 0.000001 -0.000000 -0.000000 0.000001 -0.000000 -0.000000 0.000001 -0.000000 -0.000000 0.000001 0.000000 -0.000000 0.000001 0.000000 -0.000000 -0.000000 -0.000000 0.000000 
0.107717 78.200844 23.595814 3.032380 0.018974 -2.723155 0.000000 -0.000000 0.000000 -52.602586 4.217436 -1.547972 85.942310 18.812411 2.670826 -11.468145 -3.670968 5.402498 0.000002 -0.000001 -0.000000 0.000002 -0.000001 -0.000000 0.000000 -0.000002 0.000000 4.135929 -1.124981 0.302341 28.950156 -6.754930 0.448009 -17.675930 1.098951 -2.052751 -0.000001 0.000000 0.000001 -0.000001 0.000000 0.000001 0.000002 -0.000000 0.000000 5.215982 1.104755 1.801592 10.455184 2.155936 1.579488 10.455192 2.155938 1.579489 -3.911939 -2.051843 -3.108963 -15.412923 -6.968607 -2.762467 -0.000000 -0.000000 0.000000 -0.000000 -0.000000 0.000000 -0.000000 -0.000000 0.000000 1.786974 -3.971021 -9.534742 12.787734 15.846242 -54.449397 1.002098 -94.117295 -1.703936 5.497127 -22.121531 8.095004 -3.146826 -5.113387 -4.887250 9.427686 10.524488 2.096428 -0.000002 0.000001 -0.000001 -3.475301 -5.146791 -67.408155 -4.944615 -3.919611 -76.068302 -0.000000 -0.000001 -0.000000 -3.787574 -3.486042 -70.921338 -4.108215 -5.029737 -69.820987 0.000003 -0.000001 0.000002 -2.928000 4.660148 -75.391437 -2.461830 -4.199553 -72.400265 0.000001 0.000001 -0.000004 -2.538238 10.833179 -79.709011 -1.450312 -6.272184 -82.080733 -0.000000 -0.000003 -0.000001 0.000000 -0.000003 0.000002 1.930902 6.584848 2.866639 -0.732039 -11.475492 43.591623 -19.067802 78.798199 18.763375 -3.974845 7.912130 0.491881 0.335342 0.201026 7.306212 9.057968 -5.908068 -5.374527 -0.000001 -0.000003 0.000002 2.634485 1.767250 63.089310 -4.517358 2.819768 81.169934 -0.000001 -0.000002 0.000003 -1.938064 1.532564 68.030801 -3.806503 4.094427 74.947782 0.000003 -0.000001 0.000003 -2.555267 -3.261363 75.296620 -3.886179 5.602900 77.457344 0.000003 0.000002 0.000004 -2.611550 -7.628562 85.588916 -4.565812 9.440973 87.155078 -0.000001 0.000001 -0.000005 0.000002 -0.000002 0.000000 0.000002 -0.000001 -0.000000 0.000002 -0.000001 -0.000000 0.000002 -0.000001 -0.000000 0.000002 -0.000001 -0.000000 0.000002 -0.000001 -0.000000 0.000000 -0.000000 -0.000000 0.000002 -0.000001 -0.000000 0.000002 -0.000001 -0.000000 0.000000 -0.000000 -0.000000 -0.000001 0.000000 0.000000 -0.000001 0.000000 0.000000 0.000000 -0.000000 0.000000 
0.983181 78.180405 33.926395 3.540658 -1.611740 -1.158979 0.000000 0.000000 0.000000 -59.136768 6.248117 -1.899196 79.390041 19.047135 3.028720 -14.341481 -4.163632 4.089421 0.000000 -0.000000 -0.000001 0.000000 -0.000000 -0.000000 0.000000 -0.000002 0.000001 -9.887577 1.341952 -5.654289 47.845595 -8.373744 2.953231 -17.927464 -1.475972 5.486430 0.000000 0.000000 -0.000000 0.000000 0.000000 -0.000000 -0.000000 -0.000000 0.000000 4.889453 0.956856 1.320189 9.787289 1.688340 1.421566 9.787292 1.688340 1.421565 -1.684695 -1.243210 -4.845382 -14.701332 -6.181295 -1.030405 -0.000000 0.000001 -0.000000 -0.000000 0.000001 -0.000000 -0.000000 0.000001 -0.000000 1.651230 -3.732379 -6.282016 2.143036 12.294224 -39.676818 -54.444240 -85.426214 -50.902729 1.435827 -24.324964 16.015619 -2.600155 -3.059327 -3.089115 13.485557 7.091488 1.785284 -0.000002 -0.000001 -0.000000 -2.522746 -4.619120 -56.336374 -3.786539 -3.463889 -65.669195 -0.000000 -0.000001 -0.000004 -2.814992 -3.022540 -59.874866 -3.128936 -4.502850 -59.399771 -0.000001 -0.000001 -0.000000 -2.205511 4.890478 -64.757461 -1.849692 -3.974709 -61.817372 0.000001 -0.000002 -0.000001 -1.773770 10.909742 -67.678958 -1.191472 -6.272722 -71.656334 0.000001 -0.000003 0.000004 0.000000 0.000001 -0.000001 1.955068 5.866109 -0.938002 -8.833283 -8.299877 32.812154 -25.232447 74.583828 19.600869 -5.650072 13.185643 -5.478438 -0.564221 -1.995144 7.308312 14.146947 -0.921744 -8.965340 0.000001 -0.000001 0.000001 1.709843 0.867722 52.928488 -3.459686 2.495837 69.803495 -0.000002 0.000002 0.000004 -1.752612 1.015395 57.564288 -2.906917 3.695117 63.557779 -0.000001 0.000001 -0.000004 -1.581912 -3.582358 64.705490 -2.924539 5.321320 65.877277 0.000002 -0.000000 0.000000 -1.051989 -7.788367 72.561526 -3.650668 9.364874 75.670163 -0.000002 -0.000001 0.000000 -0.000000 0.000001 -0.000002 0.000000 0.000000 0.000000 0.000000 0.000000 0.000000 0.000000 0.000000 0.000000 0.000000 0.000000 0.000000 0.000000 0.000000 0.000000 0.000000 0.000000 0.000000 0.000000 0.000000 0.000000 0.000000 0.000000 0.000000 0.000000 0.000000 0.000000 0.000000 0.000000 -0.000000 0.000000 0.000000 -0.000000 0.000000 0.000000 0.000000 
